# xmcd
#
# Track frame offsets: 
#        150
#        8160
#        27045
#        46678
#        68172
#        82857
#        91134
#        110254
#        142908
#
# Disc length: 2088 seconds
#
# Revision: 0
# Processed by: cddbd v1.5.2PL0 Copyright (c) Steve Scherf et al.
# Submitted via: ExactAudioCopy v1.1
#
DISCID=59082609
DTITLE=Logic - Internal
DYEAR=1900
DGENRE=
TTITLE0=Thoughts In Time
TTITLE1=Amends
TTITLE2=Contributions
TTITLE3=Possibilities
TTITLE4=The Overwhelming Storm
TTITLE5=Early Sunday Morning
TTITLE6=Taking Baby-Steps
TTITLE7=The Soul Mate
TTITLE8=Mixed Messages
EXTD=
EXTT0=
EXTT1=
EXTT2=
EXTT3=
EXTT4=
EXTT5=
EXTT6=
EXTT7=
EXTT8=
PLAYORDER=
